<svg width="285" height="446" viewBox="0 0 285 446" fill="none" xmlns="http://www.w3.org/2000/svg">
<rect opacity="0.72" width="285" height="446" fill="#3A3A3A"/>
<path d="M91.848 264.208C94.184 264.208 95.816 262.96 95.816 260.912C95.816 258.688 93.944 258.112 92.088 257.52C90.456 257.008 89.832 256.64 89.832 255.776C89.832 254.928 90.52 254.384 91.592 254.384C92.84 254.384 93.544 255.056 93.944 255.952L95.496 255.056C94.792 253.568 93.432 252.592 91.592 252.592C89.704 252.592 87.992 253.76 87.992 255.824C87.992 257.936 89.688 258.576 91.432 259.104C93.096 259.616 93.976 259.952 93.976 260.944C93.976 261.76 93.352 262.416 91.896 262.416C90.376 262.416 89.512 261.664 89.112 260.528L87.528 261.456C88.12 263.12 89.64 264.208 91.848 264.208ZM101.513 255.792C100.425 255.792 99.5609 256.192 99.0329 257.024V252.8H97.3049V264H99.0329V259.712C99.0329 258.08 99.9289 257.408 101.065 257.408C102.153 257.408 102.857 258.048 102.857 259.264V264H104.585V259.088C104.585 257.008 103.305 255.792 101.513 255.792ZM112.782 256V257.136C112.174 256.304 111.23 255.792 109.982 255.792C107.806 255.792 105.998 257.616 105.998 260C105.998 262.368 107.806 264.208 109.982 264.208C111.23 264.208 112.174 263.696 112.782 262.848V264H114.51V256H112.782ZM110.254 262.56C108.814 262.56 107.726 261.488 107.726 260C107.726 258.512 108.814 257.44 110.254 257.44C111.694 257.44 112.782 258.512 112.782 260C112.782 261.488 111.694 262.56 110.254 262.56ZM118.252 257.344V256H116.524V264H118.252V259.968C118.252 258.176 119.58 257.648 120.716 257.728V255.856C119.708 255.856 118.732 256.256 118.252 257.344ZM122.977 260.736H129.345C129.377 260.512 129.409 260.256 129.409 260.016C129.409 257.712 127.777 255.792 125.393 255.792C122.881 255.792 121.169 257.632 121.169 260C121.169 262.4 122.881 264.208 125.521 264.208C127.089 264.208 128.289 263.552 129.025 262.464L127.601 261.632C127.217 262.192 126.497 262.624 125.537 262.624C124.257 262.624 123.249 261.984 122.977 260.736ZM122.961 259.328C123.201 258.128 124.081 257.36 125.377 257.36C126.417 257.36 127.425 257.952 127.665 259.328H122.961Z" fill="white"/>
<path d="M73 263C72.212 263 71.5 263.31 70.966 263.807L63.91 259.7C63.96 259.47 64 259.24 64 259C64 258.76 63.96 258.53 63.91 258.3L70.96 254.19C71.5 254.69 72.21 255 73 255C74.66 255 76 253.66 76 252C76 250.34 74.66 249 73 249C71.34 249 70 250.34 70 252C70 252.24 70.04 252.47 70.09 252.7L63.04 256.81C62.5 256.31 61.79 256 61 256C59.34 256 58 257.34 58 259C58 260.66 59.34 262 61 262C61.79 262 62.5 261.69 63.04 261.19L70.088 265.308C70.0317 265.534 70.0022 265.767 70 266C70 266.593 70.1759 267.173 70.5056 267.667C70.8352 268.16 71.3038 268.545 71.8519 268.772C72.4001 268.999 73.0033 269.058 73.5853 268.942C74.1672 268.827 74.7018 268.541 75.1213 268.121C75.5409 267.702 75.8266 267.167 75.9424 266.585C76.0581 266.003 75.9987 265.4 75.7716 264.852C75.5446 264.304 75.1601 263.835 74.6667 263.506C74.1734 263.176 73.5933 263 73 263Z" fill="white"/>
<path d="M190 268.054C170 257 184 245 190 252.588C196 245 210 257 190 268.054Z" stroke="white" stroke-width="1.8"/>
<path d="M212.96 262.24V252.8H211.12V264H217.52V262.24H212.96ZM219.638 254.8C220.246 254.8 220.742 254.288 220.742 253.696C220.742 253.088 220.246 252.592 219.638 252.592C219.03 252.592 218.534 253.088 218.534 253.696C218.534 254.288 219.03 254.8 219.638 254.8ZM218.774 264H220.502V256H218.774V264ZM229.58 264L225.932 259.92L229.452 256H227.34L224.236 259.536V252.8H222.508V264H224.236V260.304L227.516 264H229.58ZM231.462 260.736H237.83C237.862 260.512 237.894 260.256 237.894 260.016C237.894 257.712 236.262 255.792 233.878 255.792C231.366 255.792 229.654 257.632 229.654 260C229.654 262.4 231.366 264.208 234.006 264.208C235.574 264.208 236.774 263.552 237.51 262.464L236.086 261.632C235.702 262.192 234.982 262.624 234.022 262.624C232.742 262.624 231.734 261.984 231.462 260.736ZM231.446 259.328C231.686 258.128 232.566 257.36 233.862 257.36C234.902 257.36 235.91 257.952 236.15 259.328H231.446Z" fill="white"/>
<rect x="42" y="175" width="202" height="48" fill="white"/>
<path d="M109.416 204H111.4L107.352 192.8H105.144L101.08 204H103.08L103.864 201.744H108.632L109.416 204ZM104.472 200.016L106.248 194.96L108.024 200.016H104.472ZM118.625 192.8V197.136C118.017 196.304 117.073 195.792 115.825 195.792C113.649 195.792 111.841 197.616 111.841 200C111.841 202.368 113.649 204.208 115.825 204.208C117.073 204.208 118.017 203.696 118.625 202.848V204H120.353V192.8H118.625ZM116.097 202.56C114.657 202.56 113.569 201.488 113.569 200C113.569 198.512 114.657 197.44 116.097 197.44C117.537 197.44 118.625 198.512 118.625 200C118.625 201.488 117.537 202.56 116.097 202.56ZM128.703 192.8V197.136C128.095 196.304 127.151 195.792 125.903 195.792C123.727 195.792 121.919 197.616 121.919 200C121.919 202.368 123.727 204.208 125.903 204.208C127.151 204.208 128.095 203.696 128.703 202.848V204H130.431V192.8H128.703ZM126.175 202.56C124.735 202.56 123.647 201.488 123.647 200C123.647 198.512 124.735 197.44 126.175 197.44C127.615 197.44 128.703 198.512 128.703 200C128.703 201.488 127.615 202.56 126.175 202.56ZM140.91 197.664V196H138.926V193.76L137.198 194.272V196H135.726V197.664H137.198V201.504C137.198 203.584 138.254 204.32 140.91 204V202.448C139.598 202.512 138.926 202.528 138.926 201.504V197.664H140.91ZM145.925 204.208C148.277 204.208 150.149 202.368 150.149 200C150.149 197.616 148.277 195.792 145.925 195.792C143.589 195.792 141.701 197.616 141.701 200C141.701 202.368 143.589 204.208 145.925 204.208ZM145.925 202.528C144.517 202.528 143.429 201.456 143.429 200C143.429 198.544 144.517 197.472 145.925 197.472C147.333 197.472 148.421 198.544 148.421 200C148.421 201.456 147.333 202.528 145.925 202.528ZM159.487 204.208C161.055 204.208 162.415 203.392 163.087 202.128L161.599 201.28C161.215 202.016 160.431 202.512 159.471 202.512C158.063 202.512 156.991 201.44 156.991 200C156.991 198.56 158.063 197.488 159.471 197.488C160.431 197.488 161.215 197.968 161.567 198.72L163.055 197.856C162.415 196.608 161.055 195.792 159.487 195.792C157.071 195.792 155.263 197.616 155.263 200C155.263 202.368 157.071 204.208 159.487 204.208ZM170.547 196V197.136C169.939 196.304 168.995 195.792 167.747 195.792C165.571 195.792 163.763 197.616 163.763 200C163.763 202.368 165.571 204.208 167.747 204.208C168.995 204.208 169.939 203.696 170.547 202.848V204H172.275V196H170.547ZM168.019 202.56C166.579 202.56 165.491 201.488 165.491 200C165.491 198.512 166.579 197.44 168.019 197.44C169.459 197.44 170.547 198.512 170.547 200C170.547 201.488 169.459 202.56 168.019 202.56ZM176.017 197.344V196H174.289V204H176.017V199.968C176.017 198.176 177.345 197.648 178.481 197.728V195.856C177.473 195.856 176.497 196.256 176.017 197.344ZM184.425 197.664V196H182.441V193.76L180.713 194.272V196H179.241V197.664H180.713V201.504C180.713 203.584 181.769 204.32 184.425 204V202.448C183.113 202.512 182.441 202.528 182.441 201.504V197.664H184.425Z" fill="#E89F71"/>
</svg>
